<?xml version="1.0" encoding="UTF-8"?>
<svg width="24px" height="24px" viewBox="0 0 24 24" version="1.1" xmlns="http://www.w3.org/2000/svg" xmlns:xlink="http://www.w3.org/1999/xlink">
    <title>a</title>
    <g id="Page-1" stroke="none" stroke-width="1" fill="none" fill-rule="evenodd">
        <g id="INICIO" transform="translate(-36.000000, -466.000000)" fill="#6A7183" fill-rule="nonzero">
            <g id="historial-de-atenciones" transform="translate(36.000000, 466.000000)">
                <path d="M0,22.5660377 C0,17.6855346 0,12.7798742 0,7.89937107 C0.0250521921,7.87421384 0.0250521921,7.8490566 0.0250521921,7.82389937 C0.225469729,7.04402516 0.701461378,6.59119497 1.50313152,6.5408805 C1.97912317,6.49056604 2.45511482,6.51572327 2.93110647,6.51572327 C3.20668058,6.51572327 3.4822547,6.51572327 3.782881,6.51572327 C3.782881,6.38993711 3.782881,6.31446541 3.782881,6.21383648 C3.782881,4.40251572 3.782881,2.56603774 3.782881,0.754716981 C3.782881,0.150943396 3.95824635,0 4.53444676,0 C9.09394572,0 13.6784969,0 18.2379958,0 C18.8141962,0 18.9895616,0.176100629 18.9895616,0.754716981 C18.9895616,3.49685535 18.9895616,6.21383648 18.9895616,8.95597484 C18.9895616,9.05660377 18.9895616,9.13207547 18.9895616,9.25786164 C19.1649269,9.25786164 19.3152401,9.25786164 19.4655532,9.25786164 C20.1419624,9.28301887 20.6931106,9.55974843 20.9686848,10.1886792 C21.0939457,10.4402516 21.1189979,10.7421384 21.1440501,11.0188679 C21.1691023,11.5220126 21.1440501,12.0251572 21.1440501,12.5283019 C21.5448852,12.5283019 21.8956159,12.5283019 22.2713987,12.5283019 C22.822547,12.5283019 23.2985386,12.7044025 23.6242171,13.1320755 C23.7995825,13.3584906 23.874739,13.6352201 24,13.9119497 C24,14.0628931 24,14.2389937 24,14.3899371 C23.9498956,14.5408805 23.9248434,14.6666667 23.874739,14.8176101 C22.9728601,17.6603774 22.0960334,20.5031447 21.1941545,23.3459119 C21.0187891,23.9245283 20.9185804,24 20.3173278,24 C14.7056367,24 9.11899791,24 3.50730689,24 C2.90605428,24 2.27974948,24 1.67849687,24 C1.10229645,24 0.60125261,23.7987421 0.275574113,23.3207547 C0.175365344,23.0691824 0.100208768,22.7924528 0,22.5660377 Z M20.091858,22.8427673 C20.091858,22.7421384 20.091858,22.6666667 20.091858,22.5660377 C20.091858,18.7169811 20.091858,14.8679245 20.091858,11.0188679 C20.091858,10.9433962 20.091858,10.8427673 20.0668058,10.7672956 C20.0167015,10.5157233 19.8663883,10.3647799 19.6158664,10.3144654 C19.5156576,10.2893082 19.3903967,10.2893082 19.2901879,10.2893082 C15.2818372,10.2893082 11.2734864,10.2893082 7.2651357,10.2893082 C6.66388309,10.2893082 6.51356994,10.1383648 6.51356994,9.50943396 C6.51356994,9.08176101 6.51356994,8.62893082 6.51356994,8.20125786 C6.51356994,7.79874214 6.3131524,7.57232704 5.91231733,7.57232704 C4.50939457,7.57232704 3.10647182,7.57232704 1.67849687,7.57232704 C1.45302714,7.57232704 1.22755741,7.64779874 1.15240084,7.87421384 C1.10229645,8 1.07724426,8.17610063 1.07724426,8.30188679 C1.07724426,12.8805031 1.07724426,17.4591195 1.07724426,22.0628931 C1.07724426,22.6666667 1.2526096,22.8427673 1.82881002,22.8427673 C7.81628392,22.8427673 13.8037578,22.8427673 19.7912317,22.8427673 C19.8914405,22.8427673 19.9916493,22.8427673 20.091858,22.8427673 Z M7.61586639,9.20754717 C11.0730689,9.20754717 14.5052192,9.20754717 17.9123173,9.20754717 C17.9123173,6.49056604 17.9123173,3.77358491 17.9123173,1.05660377 C13.5532359,1.05660377 9.24425887,1.05660377 4.91022965,1.05660377 C4.91022965,2.86792453 4.91022965,4.65408805 4.91022965,6.49056604 C5.23590814,6.49056604 5.56158664,6.49056604 5.88726514,6.49056604 C6.9394572,6.51572327 7.61586639,7.19496855 7.61586639,8.25157233 C7.61586639,8.55345912 7.61586639,8.88050314 7.61586639,9.20754717 Z M21.1941545,13.5849057 C21.1941545,15.6477987 21.1941545,17.6855346 21.1941545,19.6981132 C21.2442589,19.6477987 21.2693111,19.572327 21.2943633,19.5220126 C21.5699374,18.6163522 21.8705637,17.7358491 22.1461378,16.8301887 C22.3966597,16 22.6722338,15.1698113 22.9227557,14.3396226 C23.0480167,13.9622642 22.8475992,13.6100629 22.4968685,13.5849057 C22.0709812,13.5849057 21.6450939,13.5849057 21.1941545,13.5849057 Z" id="Shape"></path>
                <path d="M11.4237996,4.30188679 C9.84551148,4.30188679 8.26722338,4.30188679 6.71398747,4.30188679 C6.58872651,4.30188679 6.48851775,4.30188679 6.36325678,4.27672956 C6.13778706,4.20125786 5.9874739,3.97484277 5.9874739,3.77358491 C5.9874739,3.54716981 6.13778706,3.34591195 6.36325678,3.27044025 C6.46346555,3.24528302 6.58872651,3.22012579 6.68893528,3.22012579 C9.84551148,3.22012579 13.0020877,3.22012579 16.1586639,3.22012579 C16.2588727,3.22012579 16.3841336,3.22012579 16.4843424,3.27044025 C16.7098121,3.34591195 16.8350731,3.54716981 16.8350731,3.77358491 C16.8350731,4 16.7098121,4.20125786 16.4843424,4.27672956 C16.3841336,4.30188679 16.2588727,4.32704403 16.1336117,4.32704403 C14.5553236,4.30188679 12.9770355,4.30188679 11.4237996,4.30188679 Z" id="Path"></path>
                <path d="M14.6805846,5.96226415 C15.1816284,5.96226415 15.7077244,5.96226415 16.2087683,5.96226415 C16.6096033,5.96226415 16.8350731,6.18867925 16.8350731,6.51572327 C16.8350731,6.8427673 16.5845511,7.04402516 16.2338205,7.04402516 C15.2066806,7.04402516 14.1795407,7.04402516 13.1524008,7.04402516 C12.776618,7.04402516 12.526096,6.81761006 12.526096,6.49056604 C12.526096,6.16352201 12.776618,5.96226415 13.177453,5.96226415 C13.6534447,5.93710692 14.1795407,5.96226415 14.6805846,5.96226415 Z" id="Path"></path>
                <path d="M9.77035491,5.96226415 C10.0960334,5.96226415 10.4467641,5.96226415 10.7724426,5.96226415 C11.1482255,5.96226415 11.3736952,6.18867925 11.3987474,6.49056604 C11.3987474,6.79245283 11.1482255,7.04402516 10.7974948,7.04402516 C10.1210856,7.04402516 9.44467641,7.04402516 8.76826722,7.04402516 C8.39248434,7.04402516 8.16701461,6.81761006 8.16701461,6.49056604 C8.16701461,6.16352201 8.41753653,5.96226415 8.79331942,5.96226415 C9.11899791,5.93710692 9.44467641,5.96226415 9.77035491,5.96226415 Z" id="Path"></path>
            </g>
        </g>
    </g>
</svg>
